<?xml version="1.0" encoding="UTF-8" standalone="no"?>
<!DOCTYPE svg PUBLIC "-//W3C//DTD SVG 1.1//EN"
 "http://www.w3.org/Graphics/SVG/1.1/DTD/svg11.dtd">
<!-- Generated by graphviz version 2.40.1 (20161225.0304)
 -->
<!-- Title: G Pages: 1 -->
<svg width="429pt" height="402pt"
 viewBox="0.00 0.00 429.18 402.00" xmlns="http://www.w3.org/2000/svg" xmlns:xlink="http://www.w3.org/1999/xlink">
<g id="graph0" class="graph" transform="scale(1 1) rotate(0) translate(4 398)">
<title>G</title>
<polygon fill="#ffffff" stroke="transparent" points="-4,4 -4,-398 425.1822,-398 425.1822,4 -4,4"/>
<g id="clust1" class="cluster">
<title>cluster_Global</title>
<polygon fill="none" stroke="#000000" points="8,-8 8,-386 413.1822,-386 413.1822,-8 8,-8"/>
<text text-anchor="middle" x="210.5911" y="-373.2" font-family="Times,serif" font-size="11.00" fill="#c0c0c0">Global</text>
</g>
<g id="clust2" class="cluster">
<title>cluster_\macwinnie</title>
<polygon fill="none" stroke="#000000" points="280.1822,-16 280.1822,-358 405.1822,-358 405.1822,-16 280.1822,-16"/>
<text text-anchor="middle" x="342.6822" y="-345.2" font-family="Times,serif" font-size="11.00" fill="#c0c0c0">macwinnie</text>
</g>
<g id="clust3" class="cluster">
<title>cluster_\macwinnie\TwigForm</title>
<polygon fill="none" stroke="#000000" points="288.1822,-24 288.1822,-330 397.1822,-330 397.1822,-24 288.1822,-24"/>
<text text-anchor="middle" x="342.6822" y="-317.2" font-family="Times,serif" font-size="11.00" fill="#c0c0c0">TwigForm</text>
</g>
<g id="clust4" class="cluster">
<title>cluster_\macwinnie\TwigForm\Twig</title>
<polygon fill="none" stroke="#000000" points="296.1822,-132 296.1822,-258 389.1822,-258 389.1822,-132 296.1822,-132"/>
<text text-anchor="middle" x="342.6822" y="-245.2" font-family="Times,serif" font-size="11.00" fill="#c0c0c0">Twig</text>
</g>
<g id="clust5" class="cluster">
<title>cluster_Global\Twig</title>
<polygon fill="none" stroke="#000000" points="16,-164 16,-272 248.1822,-272 248.1822,-164 16,-164"/>
<text text-anchor="middle" x="132.0911" y="-259.2" font-family="Times,serif" font-size="11.00" fill="#c0c0c0">Twig</text>
</g>
<g id="clust6" class="cluster">
<title>cluster_Global\Twig\Extension</title>
<polygon fill="none" stroke="#000000" points="24,-172 24,-244 240.1822,-244 240.1822,-172 24,-172"/>
<text text-anchor="middle" x="132.0911" y="-231.2" font-family="Times,serif" font-size="11.00" fill="#c0c0c0">Extension</text>
</g>
<!-- \\macwinnie\\TwigForm\\Twig\\Extension -->
<g id="node1" class="node">
<title>\\macwinnie\\TwigForm\\Twig\\Extension</title>
<polygon fill="none" stroke="#000000" points="381.1822,-230 304.1822,-230 304.1822,-194 381.1822,-194 381.1822,-230"/>
<text text-anchor="middle" x="342.6822" y="-209.2" font-family="Courier,monospace" font-size="11.00" fill="#000000">Extension</text>
</g>
<!-- ExtensionInterface -->
<g id="node6" class="node">
<title>ExtensionInterface</title>
<ellipse fill="none" stroke="#000000" cx="132.0911" cy="-198" rx="100.1823" ry="18"/>
<text text-anchor="middle" x="132.0911" y="-194.3" font-family="Times,serif" font-size="14.00" fill="#c0c0c0">ExtensionInterface</text>
</g>
<!-- \\macwinnie\\TwigForm\\Twig\\Extension&#45;&gt;ExtensionInterface -->
<g id="edge2" class="edge">
<title>\\macwinnie\\TwigForm\\Twig\\Extension&#45;&gt;ExtensionInterface</title>
<path fill="none" stroke="#000000" stroke-dasharray="1,5" d="M304.0566,-209.4322C284.7494,-208.1487 260.3619,-206.5274 236.068,-204.9123"/>
<polygon fill="none" stroke="#000000" points="236.2556,-201.4172 226.0454,-204.246 235.7912,-208.4018 236.2556,-201.4172"/>
</g>
<!-- \\macwinnie\\TwigForm\\Twig\\Helper -->
<g id="node2" class="node">
<title>\\macwinnie\\TwigForm\\Twig\\Helper</title>
<polygon fill="none" stroke="#000000" points="371.1822,-176 314.1822,-176 314.1822,-140 371.1822,-140 371.1822,-176"/>
<text text-anchor="middle" x="342.6822" y="-155.2" font-family="Courier,monospace" font-size="11.00" fill="#000000">Helper</text>
</g>
<!-- \\macwinnie\\TwigForm\\Exception -->
<g id="node3" class="node">
<title>\\macwinnie\\TwigForm\\Exception</title>
<polygon fill="none" stroke="#000000" points="381.1822,-302 304.1822,-302 304.1822,-266 381.1822,-266 381.1822,-302"/>
<text text-anchor="middle" x="342.6822" y="-281.2" font-family="Courier,monospace" font-size="11.00" fill="#000000">Exception</text>
</g>
<!-- Exception -->
<g id="node7" class="node">
<title>Exception</title>
<ellipse fill="none" stroke="#000000" cx="132.0911" cy="-298" rx="57.6901" ry="18"/>
<text text-anchor="middle" x="132.0911" y="-294.3" font-family="Times,serif" font-size="14.00" fill="#c0c0c0">Exception</text>
</g>
<!-- \\macwinnie\\TwigForm\\Exception&#45;&gt;Exception -->
<g id="edge1" class="edge">
<title>\\macwinnie\\TwigForm\\Exception&#45;&gt;Exception</title>
<path fill="none" stroke="#000000" d="M304.0566,-286.5678C274.6605,-288.5221 233.4875,-291.2592 198.7989,-293.5653"/>
<polygon fill="none" stroke="#000000" points="198.4792,-290.0787 188.7334,-294.2344 198.9436,-297.0633 198.4792,-290.0787"/>
</g>
<!-- \\macwinnie\\TwigForm\\Form -->
<g id="node4" class="node">
<title>\\macwinnie\\TwigForm\\Form</title>
<polygon fill="none" stroke="#000000" points="369.6822,-122 315.6822,-122 315.6822,-86 369.6822,-86 369.6822,-122"/>
<text text-anchor="middle" x="342.6822" y="-101.2" font-family="Courier,monospace" font-size="11.00" fill="#000000">Form</text>
</g>
<!-- \\macwinnie\\TwigForm\\Template -->
<g id="node5" class="node">
<title>\\macwinnie\\TwigForm\\Template</title>
<polygon fill="none" stroke="#000000" points="378.1822,-68 307.1822,-68 307.1822,-32 378.1822,-32 378.1822,-68"/>
<text text-anchor="middle" x="342.6822" y="-47.2" font-family="Courier,monospace" font-size="11.00" fill="#000000">Template</text>
</g>
</g>
</svg>
