<?xml version="1.0" encoding="UTF-8" standalone="no"?><svg xmlns="http://www.w3.org/2000/svg" xmlns:xlink="http://www.w3.org/1999/xlink" contentScriptType="application/ecmascript" contentStyleType="text/css" height="356px" preserveAspectRatio="none" style="width:468px;height:356px;background:#FFFFFF;" version="1.1" viewBox="0 0 468 356" width="468px" zoomAndPan="magnify"><defs/><g><!--MD5=[0eeaf7e630a69a8867a8742337c483b6]
cluster macwinnie\\TwigForm--><polygon fill="#FFFFFF" points="246,148,419,148,426,170.2969,429,170.2969,429,349,246,349,246,148" style="stroke:#000000;stroke-width:1.5;"/><line style="stroke:#000000;stroke-width:1.5;" x1="246" x2="426" y1="170.2969" y2="170.2969"/><text fill="#000000" font-family="sans-serif" font-size="14" font-weight="bold" lengthAdjust="spacing" textLength="167" x="250" y="162.9951">macwinnie\TwigForm</text><!--MD5=[edc7f87afa1d8d89e515dfafc1947d17]
cluster macwinnie\\TwigForm\\Twig--><polygon fill="#FFFFFF" points="225,6,441,6,448,28.2969,451,28.2969,451,140,225,140,225,6" style="stroke:#000000;stroke-width:1.5;"/><line style="stroke:#000000;stroke-width:1.5;" x1="225" x2="448" y1="28.2969" y2="28.2969"/><text fill="#000000" font-family="sans-serif" font-size="14" font-weight="bold" lengthAdjust="spacing" textLength="210" x="229" y="20.9951">macwinnie\TwigForm\Twig</text><!--MD5=[9b21c22350a729cdadb7432e2ccc3963]
cluster Twig\\Extension--><polygon fill="#FFFFFF" points="16,6,142,6,149,28.2969,182,28.2969,182,73,16,73,16,6" style="stroke:#000000;stroke-width:1.5;"/><line style="stroke:#000000;stroke-width:1.5;" x1="16" x2="149" y1="28.2969" y2="28.2969"/><text fill="#000000" font-family="sans-serif" font-size="14" font-weight="bold" lengthAdjust="spacing" textLength="120" x="20" y="20.9951">Twig\Extension</text><!--MD5=[57739b4edd130a02fdf3826921af8980]
class macwinnie\\TwigForm\\Exception--><rect codeLine="15" fill="#FEFECE" height="32" id="macwinnie\\TwigForm\\Exception" style="stroke:#A80036;stroke-width:1.5;" width="93" x="291" y="175"/><ellipse cx="306" cy="191" fill="#ADD1B2" rx="11" ry="11" style="stroke:#A80036;stroke-width:1.0;"/><path d="M308.9688,196.6406 Q308.3906,196.9375 307.75,197.0781 Q307.1094,197.2344 306.4063,197.2344 Q303.9063,197.2344 302.5781,195.5938 Q301.2656,193.9375 301.2656,190.8125 Q301.2656,187.6875 302.5781,186.0313 Q303.9063,184.375 306.4063,184.375 Q307.1094,184.375 307.75,184.5313 Q308.4063,184.6875 308.9688,184.9844 L308.9688,187.7031 Q308.3438,187.125 307.75,186.8594 Q307.1563,186.5781 306.5313,186.5781 Q305.1875,186.5781 304.5,187.6563 Q303.8125,188.7188 303.8125,190.8125 Q303.8125,192.9063 304.5,193.9844 Q305.1875,195.0469 306.5313,195.0469 Q307.1563,195.0469 307.75,194.7813 Q308.3438,194.5 308.9688,193.9219 L308.9688,196.6406 Z " fill="#000000"/><text fill="#000000" font-family="sans-serif" font-size="12" lengthAdjust="spacing" textLength="61" x="320" y="195.1543">Exception</text><!--MD5=[df64cee767c62c8e0d89f3ad9a13185a]
class macwinnie\\TwigForm\\Form--><rect codeLine="18" fill="#FEFECE" height="32" id="macwinnie\\TwigForm\\Form" style="stroke:#A80036;stroke-width:1.5;" width="63" x="306" y="242"/><ellipse cx="321" cy="258" fill="#ADD1B2" rx="11" ry="11" style="stroke:#A80036;stroke-width:1.0;"/><path d="M323.9688,263.6406 Q323.3906,263.9375 322.75,264.0781 Q322.1094,264.2344 321.4063,264.2344 Q318.9063,264.2344 317.5781,262.5938 Q316.2656,260.9375 316.2656,257.8125 Q316.2656,254.6875 317.5781,253.0313 Q318.9063,251.375 321.4063,251.375 Q322.1094,251.375 322.75,251.5313 Q323.4063,251.6875 323.9688,251.9844 L323.9688,254.7031 Q323.3438,254.125 322.75,253.8594 Q322.1563,253.5781 321.5313,253.5781 Q320.1875,253.5781 319.5,254.6563 Q318.8125,255.7188 318.8125,257.8125 Q318.8125,259.9063 319.5,260.9844 Q320.1875,262.0469 321.5313,262.0469 Q322.1563,262.0469 322.75,261.7813 Q323.3438,261.5 323.9688,260.9219 L323.9688,263.6406 Z " fill="#000000"/><text fill="#000000" font-family="sans-serif" font-size="12" lengthAdjust="spacing" textLength="31" x="335" y="262.1543">Form</text><!--MD5=[24b54e48b517caa5bcfa2ebd6c66ae24]
class macwinnie\\TwigForm\\Template--><rect codeLine="21" fill="#FEFECE" height="32" id="macwinnie\\TwigForm\\Template" style="stroke:#A80036;stroke-width:1.5;" width="90" x="292.5" y="309"/><ellipse cx="307.5" cy="325" fill="#ADD1B2" rx="11" ry="11" style="stroke:#A80036;stroke-width:1.0;"/><path d="M310.4688,330.6406 Q309.8906,330.9375 309.25,331.0781 Q308.6094,331.2344 307.9063,331.2344 Q305.4063,331.2344 304.0781,329.5938 Q302.7656,327.9375 302.7656,324.8125 Q302.7656,321.6875 304.0781,320.0313 Q305.4063,318.375 307.9063,318.375 Q308.6094,318.375 309.25,318.5313 Q309.9063,318.6875 310.4688,318.9844 L310.4688,321.7031 Q309.8438,321.125 309.25,320.8594 Q308.6563,320.5781 308.0313,320.5781 Q306.6875,320.5781 306,321.6563 Q305.3125,322.7188 305.3125,324.8125 Q305.3125,326.9063 306,327.9844 Q306.6875,329.0469 308.0313,329.0469 Q308.6563,329.0469 309.25,328.7813 Q309.8438,328.5 310.4688,327.9219 L310.4688,330.6406 Z " fill="#000000"/><text fill="#000000" font-family="sans-serif" font-size="12" lengthAdjust="spacing" textLength="58" x="321.5" y="329.1543">Template</text><!--MD5=[f119271af13a0ad0c1b0188181bc5c85]
class macwinnie\\TwigForm\\Twig\\Extension--><rect codeLine="24" fill="#FEFECE" height="32" id="macwinnie\\TwigForm\\Twig\\Extension" style="stroke:#A80036;stroke-width:1.5;" width="93" x="291" y="33"/><ellipse cx="306" cy="49" fill="#ADD1B2" rx="11" ry="11" style="stroke:#A80036;stroke-width:1.0;"/><path d="M308.9688,54.6406 Q308.3906,54.9375 307.75,55.0781 Q307.1094,55.2344 306.4063,55.2344 Q303.9063,55.2344 302.5781,53.5938 Q301.2656,51.9375 301.2656,48.8125 Q301.2656,45.6875 302.5781,44.0313 Q303.9063,42.375 306.4063,42.375 Q307.1094,42.375 307.75,42.5313 Q308.4063,42.6875 308.9688,42.9844 L308.9688,45.7031 Q308.3438,45.125 307.75,44.8594 Q307.1563,44.5781 306.5313,44.5781 Q305.1875,44.5781 304.5,45.6563 Q303.8125,46.7188 303.8125,48.8125 Q303.8125,50.9063 304.5,51.9844 Q305.1875,53.0469 306.5313,53.0469 Q307.1563,53.0469 307.75,52.7813 Q308.3438,52.5 308.9688,51.9219 L308.9688,54.6406 Z " fill="#000000"/><text fill="#000000" font-family="sans-serif" font-size="12" lengthAdjust="spacing" textLength="61" x="320" y="53.1543">Extension</text><!--MD5=[d20f2a66fac5c1a8cf4b2782ca6a8aad]
class macwinnie\\TwigForm\\Twig\\Helper--><rect codeLine="27" fill="#FEFECE" height="32" id="macwinnie\\TwigForm\\Twig\\Helper" style="stroke:#A80036;stroke-width:1.5;" width="73" x="301" y="100"/><ellipse cx="316" cy="116" fill="#ADD1B2" rx="11" ry="11" style="stroke:#A80036;stroke-width:1.0;"/><path d="M318.9688,121.6406 Q318.3906,121.9375 317.75,122.0781 Q317.1094,122.2344 316.4063,122.2344 Q313.9063,122.2344 312.5781,120.5938 Q311.2656,118.9375 311.2656,115.8125 Q311.2656,112.6875 312.5781,111.0313 Q313.9063,109.375 316.4063,109.375 Q317.1094,109.375 317.75,109.5313 Q318.4063,109.6875 318.9688,109.9844 L318.9688,112.7031 Q318.3438,112.125 317.75,111.8594 Q317.1563,111.5781 316.5313,111.5781 Q315.1875,111.5781 314.5,112.6563 Q313.8125,113.7188 313.8125,115.8125 Q313.8125,117.9063 314.5,118.9844 Q315.1875,120.0469 316.5313,120.0469 Q317.1563,120.0469 317.75,119.7813 Q318.3438,119.5 318.9688,118.9219 L318.9688,121.6406 Z " fill="#000000"/><text fill="#000000" font-family="sans-serif" font-size="12" lengthAdjust="spacing" textLength="41" x="330" y="120.1543">Helper</text><!--MD5=[1113d68ca26a195ae589a78d8c007f13]
class Twig\\Extension\\ExtensionInterface--><rect fill="#FEFECE" height="32" id="Twig\\Extension\\ExtensionInterface" style="stroke:#A80036;stroke-width:1.5;" width="150" x="24" y="33"/><ellipse cx="39" cy="49" fill="#B4A7E5" rx="11" ry="11" style="stroke:#A80036;stroke-width:1.0;"/><path d="M34.9219,44.7656 L34.9219,42.6094 L42.3125,42.6094 L42.3125,44.7656 L39.8438,44.7656 L39.8438,52.8438 L42.3125,52.8438 L42.3125,55 L34.9219,55 L34.9219,52.8438 L37.3906,52.8438 L37.3906,44.7656 L34.9219,44.7656 Z " fill="#000000"/><text fill="#000000" font-family="sans-serif" font-size="12" font-style="italic" lengthAdjust="spacing" textLength="118" x="53" y="53.1543">ExtensionInterface</text><!--MD5=[8db60afef7a3447bbe27c5ed187fdac2]
class Exception--><rect fill="#FEFECE" height="32" id="Exception" style="stroke:#A80036;stroke-width:1.5;" width="93" x="52.5" y="175"/><ellipse cx="67.5" cy="191" fill="#ADD1B2" rx="11" ry="11" style="stroke:#A80036;stroke-width:1.0;"/><path d="M70.4688,196.6406 Q69.8906,196.9375 69.25,197.0781 Q68.6094,197.2344 67.9063,197.2344 Q65.4063,197.2344 64.0781,195.5938 Q62.7656,193.9375 62.7656,190.8125 Q62.7656,187.6875 64.0781,186.0313 Q65.4063,184.375 67.9063,184.375 Q68.6094,184.375 69.25,184.5313 Q69.9063,184.6875 70.4688,184.9844 L70.4688,187.7031 Q69.8438,187.125 69.25,186.8594 Q68.6563,186.5781 68.0313,186.5781 Q66.6875,186.5781 66,187.6563 Q65.3125,188.7188 65.3125,190.8125 Q65.3125,192.9063 66,193.9844 Q66.6875,195.0469 68.0313,195.0469 Q68.6563,195.0469 69.25,194.7813 Q69.8438,194.5 70.4688,193.9219 L70.4688,196.6406 Z " fill="#000000"/><text fill="#000000" font-family="sans-serif" font-size="12" lengthAdjust="spacing" textLength="61" x="81.5" y="195.1543">Exception</text><!--MD5=[d2c2539dd08abf3342f5f50a32d38456]
reverse link Exception to macwinnie\\TwigForm\\Exception--><path d="M165.5514,191 C165.5514,191 290.6591,191 290.6591,191 " fill="none" id="Exception-backto-macwinnie\\TwigForm\\Exception" style="stroke:#516F42;stroke-width:1.0;"/><polygon fill="none" points="165.5514,197.9999,145.5514,191,165.5513,183.9999,165.5514,197.9999" style="stroke:#516F42;stroke-width:1.0;"/><!--MD5=[2d0ba44f344265677ef1eb75b82150b1]
reverse link Twig\\Extension\\ExtensionInterface to macwinnie\\TwigForm\\Twig\\Extension--><path d="M194.1355,49 C194.1355,49 290.82,49 290.82,49 " fill="none" id="Twig\\Extension\\ExtensionInterface-backto-macwinnie\\TwigForm\\Twig\\Extension" style="stroke:#516F42;stroke-width:1.0;stroke-dasharray:7.0,7.0;"/><polygon fill="none" points="194.1356,55.9999,174.1355,49,194.1355,41.9999,194.1356,55.9999" style="stroke:#516F42;stroke-width:1.0;"/><!--MD5=[782508c9f54bc3eb19847afd328f344a]
@startuml
   skinparam ArrowColor #516f42
   skinparam activityBorderColor #516f42
   skinparam activityBackgroundColor #ffffff
   skinparam activityDiamondBorderColor #516f42
   skinparam activityDiamondBackgroundColor #ffffff
   skinparam shadowing false

skinparam shadowing false
skinparam linetype ortho
hide empty members
left to right direction
set namespaceSeparator \\


class \\macwinnie\\TwigForm\\Exception extends \\Exception {
}

class \\macwinnie\\TwigForm\\Form {
}

class \\macwinnie\\TwigForm\\Template {
}

class \\macwinnie\\TwigForm\\Twig\\Extension implements \\Twig\\Extension\\ExtensionInterface {
}

class \\macwinnie\\TwigForm\\Twig\\Helper {
}

@enduml

PlantUML version 1.2021.12(Tue Oct 05 16:01:58 UTC 2021)
(GPL source distribution)
Java Runtime: OpenJDK Runtime Environment
JVM: OpenJDK 64-Bit Server VM
Default Encoding: ANSI_X3.4-1968
Language: en
Country: US
--></g></svg>