<?xml version="1.0" encoding="UTF-8" standalone="no"?>
<!DOCTYPE svg PUBLIC "-//W3C//DTD SVG 1.1//EN"
 "http://www.w3.org/Graphics/SVG/1.1/DTD/svg11.dtd">
<!-- Generated by graphviz version 2.40.1 (20161225.0304)
 -->
<!-- Title: G Pages: 1 -->
<svg width="429pt" height="348pt"
 viewBox="0.00 0.00 429.18 348.00" xmlns="http://www.w3.org/2000/svg" xmlns:xlink="http://www.w3.org/1999/xlink">
<g id="graph0" class="graph" transform="scale(1 1) rotate(0) translate(4 344)">
<title>G</title>
<polygon fill="#ffffff" stroke="transparent" points="-4,4 -4,-344 425.1822,-344 425.1822,4 -4,4"/>
<g id="clust1" class="cluster">
<title>cluster_Global</title>
<polygon fill="none" stroke="#000000" points="8,-8 8,-332 413.1822,-332 413.1822,-8 8,-8"/>
<text text-anchor="middle" x="210.5911" y="-319.2" font-family="Times,serif" font-size="11.00" fill="#c0c0c0">Global</text>
</g>
<g id="clust2" class="cluster">
<title>cluster_\macwinnie</title>
<polygon fill="none" stroke="#000000" points="280.1822,-16 280.1822,-304 405.1822,-304 405.1822,-16 280.1822,-16"/>
<text text-anchor="middle" x="342.6822" y="-291.2" font-family="Times,serif" font-size="11.00" fill="#c0c0c0">macwinnie</text>
</g>
<g id="clust3" class="cluster">
<title>cluster_\macwinnie\TwigForm</title>
<polygon fill="none" stroke="#000000" points="288.1822,-24 288.1822,-276 397.1822,-276 397.1822,-24 288.1822,-24"/>
<text text-anchor="middle" x="342.6822" y="-263.2" font-family="Times,serif" font-size="11.00" fill="#c0c0c0">TwigForm</text>
</g>
<g id="clust4" class="cluster">
<title>cluster_\macwinnie\TwigForm\Twig</title>
<polygon fill="none" stroke="#000000" points="296.1822,-132 296.1822,-204 389.1822,-204 389.1822,-132 296.1822,-132"/>
<text text-anchor="middle" x="342.6822" y="-191.2" font-family="Times,serif" font-size="11.00" fill="#c0c0c0">Twig</text>
</g>
<g id="clust5" class="cluster">
<title>cluster_Global\Twig</title>
<polygon fill="none" stroke="#000000" points="16,-110 16,-218 248.1822,-218 248.1822,-110 16,-110"/>
<text text-anchor="middle" x="132.0911" y="-205.2" font-family="Times,serif" font-size="11.00" fill="#c0c0c0">Twig</text>
</g>
<g id="clust6" class="cluster">
<title>cluster_Global\Twig\Extension</title>
<polygon fill="none" stroke="#000000" points="24,-118 24,-190 240.1822,-190 240.1822,-118 24,-118"/>
<text text-anchor="middle" x="132.0911" y="-177.2" font-family="Times,serif" font-size="11.00" fill="#c0c0c0">Extension</text>
</g>
<!-- \\macwinnie\\TwigForm\\Twig\\Extension -->
<g id="node1" class="node">
<title>\\macwinnie\\TwigForm\\Twig\\Extension</title>
<polygon fill="none" stroke="#000000" points="381.1822,-176 304.1822,-176 304.1822,-140 381.1822,-140 381.1822,-176"/>
<text text-anchor="middle" x="342.6822" y="-155.2" font-family="Courier,monospace" font-size="11.00" fill="#000000">Extension</text>
</g>
<!-- ExtensionInterface -->
<g id="node5" class="node">
<title>ExtensionInterface</title>
<ellipse fill="none" stroke="#000000" cx="132.0911" cy="-144" rx="100.1823" ry="18"/>
<text text-anchor="middle" x="132.0911" y="-140.3" font-family="Times,serif" font-size="14.00" fill="#c0c0c0">ExtensionInterface</text>
</g>
<!-- \\macwinnie\\TwigForm\\Twig\\Extension&#45;&gt;ExtensionInterface -->
<g id="edge2" class="edge">
<title>\\macwinnie\\TwigForm\\Twig\\Extension&#45;&gt;ExtensionInterface</title>
<path fill="none" stroke="#000000" stroke-dasharray="1,5" d="M304.0566,-155.4322C284.7494,-154.1487 260.3619,-152.5274 236.068,-150.9123"/>
<polygon fill="none" stroke="#000000" points="236.2556,-147.4172 226.0454,-150.246 235.7912,-154.4018 236.2556,-147.4172"/>
</g>
<!-- \\macwinnie\\TwigForm\\Exception -->
<g id="node2" class="node">
<title>\\macwinnie\\TwigForm\\Exception</title>
<polygon fill="none" stroke="#000000" points="381.1822,-248 304.1822,-248 304.1822,-212 381.1822,-212 381.1822,-248"/>
<text text-anchor="middle" x="342.6822" y="-227.2" font-family="Courier,monospace" font-size="11.00" fill="#000000">Exception</text>
</g>
<!-- Exception -->
<g id="node6" class="node">
<title>Exception</title>
<ellipse fill="none" stroke="#000000" cx="132.0911" cy="-244" rx="57.6901" ry="18"/>
<text text-anchor="middle" x="132.0911" y="-240.3" font-family="Times,serif" font-size="14.00" fill="#c0c0c0">Exception</text>
</g>
<!-- \\macwinnie\\TwigForm\\Exception&#45;&gt;Exception -->
<g id="edge1" class="edge">
<title>\\macwinnie\\TwigForm\\Exception&#45;&gt;Exception</title>
<path fill="none" stroke="#000000" d="M304.0566,-232.5678C274.6605,-234.5221 233.4875,-237.2592 198.7989,-239.5653"/>
<polygon fill="none" stroke="#000000" points="198.4792,-236.0787 188.7334,-240.2344 198.9436,-243.0633 198.4792,-236.0787"/>
</g>
<!-- \\macwinnie\\TwigForm\\Form -->
<g id="node3" class="node">
<title>\\macwinnie\\TwigForm\\Form</title>
<polygon fill="none" stroke="#000000" points="369.6822,-122 315.6822,-122 315.6822,-86 369.6822,-86 369.6822,-122"/>
<text text-anchor="middle" x="342.6822" y="-101.2" font-family="Courier,monospace" font-size="11.00" fill="#000000">Form</text>
</g>
<!-- \\macwinnie\\TwigForm\\Template -->
<g id="node4" class="node">
<title>\\macwinnie\\TwigForm\\Template</title>
<polygon fill="none" stroke="#000000" points="378.1822,-68 307.1822,-68 307.1822,-32 378.1822,-32 378.1822,-68"/>
<text text-anchor="middle" x="342.6822" y="-47.2" font-family="Courier,monospace" font-size="11.00" fill="#000000">Template</text>
</g>
</g>
</svg>
