<?xml version="1.0" encoding="UTF-8" standalone="no"?><svg xmlns="http://www.w3.org/2000/svg" xmlns:xlink="http://www.w3.org/1999/xlink" contentStyleType="text/css" height="404px" preserveAspectRatio="none" style="width:616px;height:404px;background:#FFFFFF;" version="1.1" viewBox="0 0 616 404" width="616px" zoomAndPan="magnify"><defs/><g><!--cluster macwinnie\\TwigForm--><g id="cluster_macwinnie\\TwigForm"><path d="M275.5,180 L443.5,180 A3.75,3.75 0 0 1 446,182.5 L453,202.2969 L606.5,202.2969 A2.5,2.5 0 0 1 609,204.7969 L609,394.5 A2.5,2.5 0 0 1 606.5,397 L275.5,397 A2.5,2.5 0 0 1 273,394.5 L273,182.5 A2.5,2.5 0 0 1 275.5,180 " fill="none" style="stroke:#000000;stroke-width:1.5;"/><line style="stroke:#000000;stroke-width:1.5;" x1="273" x2="453" y1="202.2969" y2="202.2969"/><text fill="#000000" font-family="sans-serif" font-size="14" font-weight="bold" lengthAdjust="spacing" textLength="167" x="277" y="194.9951">macwinnie\TwigForm</text></g><!--cluster macwinnie\\TwigForm\\Twig--><g id="cluster_macwinnie\\TwigForm\\Twig"><path d="M228.5,6 L439.5,6 A3.75,3.75 0 0 1 442,8.5 L449,28.2969 L449.5,28.2969 A2.5,2.5 0 0 1 452,30.7969 L452,153.5 A2.5,2.5 0 0 1 449.5,156 L228.5,156 A2.5,2.5 0 0 1 226,153.5 L226,8.5 A2.5,2.5 0 0 1 228.5,6 " fill="none" style="stroke:#000000;stroke-width:1.5;"/><line style="stroke:#000000;stroke-width:1.5;" x1="226" x2="449" y1="28.2969" y2="28.2969"/><text fill="#000000" font-family="sans-serif" font-size="14" font-weight="bold" lengthAdjust="spacing" textLength="210" x="230" y="20.9951">macwinnie\TwigForm\Twig</text></g><!--cluster Twig\\Extension--><g id="cluster_Twig\\Extension"><path d="M8.5,6 L129.5,6 A3.75,3.75 0 0 1 132,8.5 L139,28.2969 L195.5,28.2969 A2.5,2.5 0 0 1 198,30.7969 L198,86.5 A2.5,2.5 0 0 1 195.5,89 L8.5,89 A2.5,2.5 0 0 1 6,86.5 L6,8.5 A2.5,2.5 0 0 1 8.5,6 " fill="none" style="stroke:#000000;stroke-width:1.5;"/><line style="stroke:#000000;stroke-width:1.5;" x1="6" x2="139" y1="28.2969" y2="28.2969"/><text fill="#000000" font-family="sans-serif" font-size="14" font-weight="bold" lengthAdjust="spacing" textLength="120" x="10" y="20.9951">Twig\Extension</text></g><!--class macwinnie\\TwigForm\\Exception--><g id="elem_macwinnie\\TwigForm\\Exception"><rect codeLine="15" fill="#F1F1F1" height="32" id="macwinnie\\TwigForm\\Exception" rx="2.5" ry="2.5" style="stroke:#181818;stroke-width:0.5;" width="100" x="289" y="349"/><ellipse cx="304" cy="365" fill="#ADD1B2" rx="11" ry="11" style="stroke:#181818;stroke-width:1.0;"/><path d="M306.9688,370.6406 Q306.3906,370.9375 305.75,371.0781 Q305.1094,371.2344 304.4063,371.2344 Q301.9063,371.2344 300.5781,369.5938 Q299.2656,367.9375 299.2656,364.8125 Q299.2656,361.6875 300.5781,360.0313 Q301.9063,358.375 304.4063,358.375 Q305.1094,358.375 305.75,358.5313 Q306.4063,358.6875 306.9688,358.9844 L306.9688,361.7031 Q306.3438,361.125 305.75,360.8594 Q305.1563,360.5781 304.5313,360.5781 Q303.1875,360.5781 302.5,361.6563 Q301.8125,362.7188 301.8125,364.8125 Q301.8125,366.9063 302.5,367.9844 Q303.1875,369.0469 304.5313,369.0469 Q305.1563,369.0469 305.75,368.7813 Q306.3438,368.5 306.9688,367.9219 L306.9688,370.6406 Z " fill="#000000"/><text fill="#000000" font-family="sans-serif" font-size="14" lengthAdjust="spacing" textLength="68" x="318" y="369.8467">Exception</text></g><!--class macwinnie\\TwigForm\\Form--><g id="elem_macwinnie\\TwigForm\\Form"><rect codeLine="18" fill="#F1F1F1" height="32" id="macwinnie\\TwigForm\\Form" rx="2.5" ry="2.5" style="stroke:#181818;stroke-width:0.5;" width="67" x="305.5" y="282"/><ellipse cx="320.5" cy="298" fill="#ADD1B2" rx="11" ry="11" style="stroke:#181818;stroke-width:1.0;"/><path d="M323.4688,303.6406 Q322.8906,303.9375 322.25,304.0781 Q321.6094,304.2344 320.9063,304.2344 Q318.4063,304.2344 317.0781,302.5938 Q315.7656,300.9375 315.7656,297.8125 Q315.7656,294.6875 317.0781,293.0313 Q318.4063,291.375 320.9063,291.375 Q321.6094,291.375 322.25,291.5313 Q322.9063,291.6875 323.4688,291.9844 L323.4688,294.7031 Q322.8438,294.125 322.25,293.8594 Q321.6563,293.5781 321.0313,293.5781 Q319.6875,293.5781 319,294.6563 Q318.3125,295.7188 318.3125,297.8125 Q318.3125,299.9063 319,300.9844 Q319.6875,302.0469 321.0313,302.0469 Q321.6563,302.0469 322.25,301.7813 Q322.8438,301.5 323.4688,300.9219 L323.4688,303.6406 Z " fill="#000000"/><text fill="#000000" font-family="sans-serif" font-size="14" lengthAdjust="spacing" textLength="35" x="334.5" y="302.8467">Form</text></g><!--class macwinnie\\TwigForm\\Row--><g id="elem_macwinnie\\TwigForm\\Row"><rect codeLine="21" fill="#F1F1F1" height="32" id="macwinnie\\TwigForm\\Row" rx="2.5" ry="2.5" style="stroke:#181818;stroke-width:0.5;" width="62" x="308" y="215"/><ellipse cx="323" cy="231" fill="#ADD1B2" rx="11" ry="11" style="stroke:#181818;stroke-width:1.0;"/><path d="M325.9688,236.6406 Q325.3906,236.9375 324.75,237.0781 Q324.1094,237.2344 323.4063,237.2344 Q320.9063,237.2344 319.5781,235.5938 Q318.2656,233.9375 318.2656,230.8125 Q318.2656,227.6875 319.5781,226.0313 Q320.9063,224.375 323.4063,224.375 Q324.1094,224.375 324.75,224.5313 Q325.4063,224.6875 325.9688,224.9844 L325.9688,227.7031 Q325.3438,227.125 324.75,226.8594 Q324.1563,226.5781 323.5313,226.5781 Q322.1875,226.5781 321.5,227.6563 Q320.8125,228.7188 320.8125,230.8125 Q320.8125,232.9063 321.5,233.9844 Q322.1875,235.0469 323.5313,235.0469 Q324.1563,235.0469 324.75,234.7813 Q325.3438,234.5 325.9688,233.9219 L325.9688,236.6406 Z " fill="#000000"/><text fill="#000000" font-family="sans-serif" font-size="14" lengthAdjust="spacing" textLength="30" x="337" y="235.8467">Row</text></g><!--class macwinnie\\TwigForm\\Template--><g id="elem_macwinnie\\TwigForm\\Template"><rect codeLine="24" fill="#F1F1F1" height="32" id="macwinnie\\TwigForm\\Template" rx="2.5" ry="2.5" style="stroke:#181818;stroke-width:0.5;" width="97" x="496" y="282"/><ellipse cx="511" cy="298" fill="#ADD1B2" rx="11" ry="11" style="stroke:#181818;stroke-width:1.0;"/><path d="M513.9688,303.6406 Q513.3906,303.9375 512.75,304.0781 Q512.1094,304.2344 511.4063,304.2344 Q508.9063,304.2344 507.5781,302.5938 Q506.2656,300.9375 506.2656,297.8125 Q506.2656,294.6875 507.5781,293.0313 Q508.9063,291.375 511.4063,291.375 Q512.1094,291.375 512.75,291.5313 Q513.4063,291.6875 513.9688,291.9844 L513.9688,294.7031 Q513.3438,294.125 512.75,293.8594 Q512.1563,293.5781 511.5313,293.5781 Q510.1875,293.5781 509.5,294.6563 Q508.8125,295.7188 508.8125,297.8125 Q508.8125,299.9063 509.5,300.9844 Q510.1875,302.0469 511.5313,302.0469 Q512.1563,302.0469 512.75,301.7813 Q513.3438,301.5 513.9688,300.9219 L513.9688,303.6406 Z " fill="#000000"/><text fill="#000000" font-family="sans-serif" font-size="14" lengthAdjust="spacing" textLength="65" x="525" y="302.8467">Template</text></g><!--class macwinnie\\TwigForm\\Twig\\Extension--><g id="elem_macwinnie\\TwigForm\\Twig\\Extension"><rect codeLine="27" fill="#F1F1F1" height="32" id="macwinnie\\TwigForm\\Twig\\Extension" rx="2.5" ry="2.5" style="stroke:#181818;stroke-width:0.5;" width="100" x="289" y="41"/><ellipse cx="304" cy="57" fill="#ADD1B2" rx="11" ry="11" style="stroke:#181818;stroke-width:1.0;"/><path d="M306.9688,62.6406 Q306.3906,62.9375 305.75,63.0781 Q305.1094,63.2344 304.4063,63.2344 Q301.9063,63.2344 300.5781,61.5938 Q299.2656,59.9375 299.2656,56.8125 Q299.2656,53.6875 300.5781,52.0313 Q301.9063,50.375 304.4063,50.375 Q305.1094,50.375 305.75,50.5313 Q306.4063,50.6875 306.9688,50.9844 L306.9688,53.7031 Q306.3438,53.125 305.75,52.8594 Q305.1563,52.5781 304.5313,52.5781 Q303.1875,52.5781 302.5,53.6563 Q301.8125,54.7188 301.8125,56.8125 Q301.8125,58.9063 302.5,59.9844 Q303.1875,61.0469 304.5313,61.0469 Q305.1563,61.0469 305.75,60.7813 Q306.3438,60.5 306.9688,59.9219 L306.9688,62.6406 Z " fill="#000000"/><text fill="#000000" font-family="sans-serif" font-size="14" lengthAdjust="spacing" textLength="68" x="318" y="61.8467">Extension</text></g><!--class macwinnie\\TwigForm\\Twig\\Helper--><g id="elem_macwinnie\\TwigForm\\Twig\\Helper"><rect codeLine="30" fill="#F1F1F1" height="32" id="macwinnie\\TwigForm\\Twig\\Helper" rx="2.5" ry="2.5" style="stroke:#181818;stroke-width:0.5;" width="77" x="300.5" y="108"/><ellipse cx="315.5" cy="124" fill="#ADD1B2" rx="11" ry="11" style="stroke:#181818;stroke-width:1.0;"/><path d="M318.4688,129.6406 Q317.8906,129.9375 317.25,130.0781 Q316.6094,130.2344 315.9063,130.2344 Q313.4063,130.2344 312.0781,128.5938 Q310.7656,126.9375 310.7656,123.8125 Q310.7656,120.6875 312.0781,119.0313 Q313.4063,117.375 315.9063,117.375 Q316.6094,117.375 317.25,117.5313 Q317.9063,117.6875 318.4688,117.9844 L318.4688,120.7031 Q317.8438,120.125 317.25,119.8594 Q316.6563,119.5781 316.0313,119.5781 Q314.6875,119.5781 314,120.6563 Q313.3125,121.7188 313.3125,123.8125 Q313.3125,125.9063 314,126.9844 Q314.6875,128.0469 316.0313,128.0469 Q316.6563,128.0469 317.25,127.7813 Q317.8438,127.5 318.4688,126.9219 L318.4688,129.6406 Z " fill="#000000"/><text fill="#000000" font-family="sans-serif" font-size="14" lengthAdjust="spacing" textLength="45" x="329.5" y="128.8467">Helper</text></g><!--class Twig\\Extension\\ExtensionInterface--><g id="elem_Twig\\Extension\\ExtensionInterface"><rect fill="#F1F1F1" height="32" id="Twig\\Extension\\ExtensionInterface" rx="2.5" ry="2.5" style="stroke:#181818;stroke-width:0.5;" width="160" x="22" y="41"/><ellipse cx="37" cy="57" fill="#B4A7E5" rx="11" ry="11" style="stroke:#181818;stroke-width:1.0;"/><path d="M32.9219,52.7656 L32.9219,50.6094 L40.3125,50.6094 L40.3125,52.7656 L37.8438,52.7656 L37.8438,60.8438 L40.3125,60.8438 L40.3125,63 L32.9219,63 L32.9219,60.8438 L35.3906,60.8438 L35.3906,52.7656 L32.9219,52.7656 Z " fill="#000000"/><text fill="#000000" font-family="sans-serif" font-size="14" font-style="italic" lengthAdjust="spacing" textLength="128" x="51" y="61.8467">ExtensionInterface</text></g><!--class Exception--><g id="elem_Exception"><rect fill="#F1F1F1" height="32" id="Exception" rx="2.5" ry="2.5" style="stroke:#181818;stroke-width:0.5;" width="100" x="52" y="349"/><ellipse cx="67" cy="365" fill="#ADD1B2" rx="11" ry="11" style="stroke:#181818;stroke-width:1.0;"/><path d="M69.9688,370.6406 Q69.3906,370.9375 68.75,371.0781 Q68.1094,371.2344 67.4063,371.2344 Q64.9063,371.2344 63.5781,369.5938 Q62.2656,367.9375 62.2656,364.8125 Q62.2656,361.6875 63.5781,360.0313 Q64.9063,358.375 67.4063,358.375 Q68.1094,358.375 68.75,358.5313 Q69.4063,358.6875 69.9688,358.9844 L69.9688,361.7031 Q69.3438,361.125 68.75,360.8594 Q68.1563,360.5781 67.5313,360.5781 Q66.1875,360.5781 65.5,361.6563 Q64.8125,362.7188 64.8125,364.8125 Q64.8125,366.9063 65.5,367.9844 Q66.1875,369.0469 67.5313,369.0469 Q68.1563,369.0469 68.75,368.7813 Q69.3438,368.5 69.9688,367.9219 L69.9688,370.6406 Z " fill="#000000"/><text fill="#000000" font-family="sans-serif" font-size="14" lengthAdjust="spacing" textLength="68" x="81" y="369.8467">Exception</text></g><!--reverse link Exception to macwinnie\\TwigForm\\Exception--><g id="link_Exception_macwinnie\\TwigForm\\Exception"><path d="M172.26,365 C172.26,365 288.81,365 288.81,365 " fill="none" id="Exception-backto-macwinnie\\TwigForm\\Exception" style="stroke:#516F42;stroke-width:1.0;"/><polygon fill="none" points="172.26,372,152.26,365,172.26,358,172.26,372" style="stroke:#516F42;stroke-width:1.0;"/></g><!--reverse link Twig\\Extension\\ExtensionInterface to macwinnie\\TwigForm\\Twig\\Extension--><g id="link_Twig\\Extension\\ExtensionInterface_macwinnie\\TwigForm\\Twig\\Extension"><path d="M202.24,57 C202.24,57 288.89,57 288.89,57 " fill="none" id="Twig\\Extension\\ExtensionInterface-backto-macwinnie\\TwigForm\\Twig\\Extension" style="stroke:#516F42;stroke-width:1.0;stroke-dasharray:7.0,7.0;"/><polygon fill="none" points="202.24,64,182.24,57,202.24,50,202.24,64" style="stroke:#516F42;stroke-width:1.0;"/></g><!--SRC=[ZP3FJWGX3CRlF4KJdq2ZtlqRlUeUvuBGcMaMA2dLsOdntOMDPZT68nn8q-_Nhny0GDbIobPiX2iHNcuuiC39nUdbU7vcu5YtJkcDTBrcyIWze7NRIVWr-Izut9_VuLkoaPFlDl_cUtQKsNfUA4qmsb3GcB-bWn8eeQuPWKLdDZDv18nPLuWONr2A2JWgA8FGD2ju4gpPE9c22ib6BDawVCPcfpNQC1XZNB2br39QLxScmc7OB3JTiyHXkDivpCq2SAUOV0CFlNVpySzykpkm9ruwg4rzRB2AFMYjMjAQkRIaL2SnOj8syKCyAX-JeeprZxfNF638A7ly4m00]--></g></svg>