<?xml version="1.0" encoding="UTF-8" standalone="no"?>
<!DOCTYPE svg PUBLIC "-//W3C//DTD SVG 1.1//EN"
 "http://www.w3.org/Graphics/SVG/1.1/DTD/svg11.dtd">
<!-- Generated by graphviz version 2.40.1 (20161225.0304)
 -->
<!-- Title: G Pages: 1 -->
<svg width="321pt" height="222pt"
 viewBox="0.00 0.00 320.69 222.00" xmlns="http://www.w3.org/2000/svg" xmlns:xlink="http://www.w3.org/1999/xlink">
<g id="graph0" class="graph" transform="scale(1 1) rotate(0) translate(4 218)">
<title>G</title>
<polygon fill="#ffffff" stroke="transparent" points="-4,4 -4,-218 316.6897,-218 316.6897,4 -4,4"/>
<g id="clust1" class="cluster">
<title>cluster_Global</title>
<polygon fill="none" stroke="#000000" points="8,-8 8,-206 304.6897,-206 304.6897,-8 8,-8"/>
<text text-anchor="middle" x="156.3449" y="-193.2" font-family="Times,serif" font-size="11.00" fill="#c0c0c0">Global</text>
</g>
<g id="clust2" class="cluster">
<title>cluster_\macwinnie</title>
<polygon fill="none" stroke="#000000" points="187.6897,-16 187.6897,-178 296.6897,-178 296.6897,-16 187.6897,-16"/>
<text text-anchor="middle" x="242.1897" y="-165.2" font-family="Times,serif" font-size="11.00" fill="#c0c0c0">macwinnie</text>
</g>
<g id="clust3" class="cluster">
<title>cluster_\macwinnie\TwigForm</title>
<polygon fill="none" stroke="#000000" points="195.6897,-24 195.6897,-150 288.6897,-150 288.6897,-24 195.6897,-24"/>
<text text-anchor="middle" x="242.1897" y="-137.2" font-family="Times,serif" font-size="11.00" fill="#c0c0c0">TwigForm</text>
</g>
<!-- \\macwinnie\\TwigForm\\Exception -->
<g id="node1" class="node">
<title>\\macwinnie\\TwigForm\\Exception</title>
<polygon fill="none" stroke="#000000" points="280.6897,-122 203.6897,-122 203.6897,-86 280.6897,-86 280.6897,-122"/>
<text text-anchor="middle" x="242.1897" y="-101.2" font-family="Courier,monospace" font-size="11.00" fill="#000000">Exception</text>
</g>
<!-- Exception -->
<g id="node3" class="node">
<title>Exception</title>
<ellipse fill="none" stroke="#000000" cx="73.8449" cy="-104" rx="57.6901" ry="18"/>
<text text-anchor="middle" x="73.8449" y="-100.3" font-family="Times,serif" font-size="14.00" fill="#c0c0c0">Exception</text>
</g>
<!-- \\macwinnie\\TwigForm\\Exception&#45;&gt;Exception -->
<g id="edge1" class="edge">
<title>\\macwinnie\\TwigForm\\Exception&#45;&gt;Exception</title>
<path fill="none" stroke="#000000" d="M203.568,-104C185.2987,-104 162.9324,-104 141.9497,-104"/>
<polygon fill="none" stroke="#000000" points="141.7843,-100.5001 131.7842,-104 141.7842,-107.5001 141.7843,-100.5001"/>
</g>
<!-- \\macwinnie\\TwigForm\\Template -->
<g id="node2" class="node">
<title>\\macwinnie\\TwigForm\\Template</title>
<polygon fill="none" stroke="#000000" points="277.6897,-68 206.6897,-68 206.6897,-32 277.6897,-32 277.6897,-68"/>
<text text-anchor="middle" x="242.1897" y="-47.2" font-family="Courier,monospace" font-size="11.00" fill="#000000">Template</text>
</g>
</g>
</svg>
